<svg width="23" height="23" viewBox="0 0 23 23" fill="none" xmlns="http://www.w3.org/2000/svg">
<path d="M21.0149 19.3996L19.3695 16.6568C18.6095 15.3909 18.208 13.9409 18.208 12.4651V10.0625C18.208 7.02938 16.184 4.46393 13.4163 3.63687V1.91668C13.4163 0.859625 12.5567 0 11.4996 0C10.4426 0 9.58295 0.859625 9.58295 1.91668V3.63687C6.81531 4.46393 4.79131 7.02938 4.79131 10.0625V12.4651C4.79131 13.9409 4.38975 15.3899 3.63075 16.6559L1.98531 19.3986C1.89619 19.5472 1.89425 19.7312 1.97956 19.8816C2.06487 20.0321 2.22299 20.125 2.39549 20.125H20.6038C20.7763 20.125 20.9354 20.0321 21.0207 19.8826C21.106 19.7331 21.1031 19.5471 21.0149 19.3996Z" fill="#9BC427"/>
<path d="M8.48193 21.0833C9.02243 22.2122 10.1667 23 11.4997 23C12.8327 23 13.977 22.2122 14.5175 21.0833H8.48193Z" fill="#9BC427"/>
</svg>
