<svg width="20" height="20" viewBox="0 0 20 20" fill="none" xmlns="http://www.w3.org/2000/svg">
<path d="M18.2414 2.37109H1.75699C1.48641 2.37109 1.23309 2.43729 1.00391 2.5464L9.96012 11.4588L11.9675 9.53904C11.9675 9.53904 11.9677 9.53884 11.9677 9.53876C11.9677 9.53869 11.9679 9.53861 11.9679 9.53861L18.9947 2.54656C18.7655 2.43737 18.512 2.37109 18.2414 2.37109Z" fill="#9BC427"/>
<path d="M19.8236 3.37122L13.2109 9.95111L19.8233 16.5311C19.933 16.3031 19.9995 16.051 19.9995 15.7817V4.12034C19.9995 3.85124 19.9331 3.5992 19.8236 3.37122Z" fill="#9BC427"/>
<path d="M0.176172 3.37097C0.0665234 3.59903 0 3.85111 0 4.12037V15.7818C0 16.0509 0.0664453 16.303 0.176016 16.531L6.78863 9.95106L0.176172 3.37097Z" fill="#9BC427"/>
<path d="M12.3823 10.7756L10.3747 12.6956C10.2602 12.8095 10.1103 12.8664 9.96043 12.8664C9.81055 12.8664 9.66058 12.8095 9.54617 12.6956L7.61664 10.7755L1.00391 17.3554C1.23312 17.4646 1.4866 17.5309 1.75727 17.5309H18.2416C18.5122 17.5309 18.7655 17.4647 18.9947 17.3556L12.3823 10.7756Z" fill="#9BC427"/>
</svg>
