<svg width="15" height="20" viewBox="0 0 15 20" fill="none" xmlns="http://www.w3.org/2000/svg">
<path d="M7.5 0C3.36426 0 0 3.34814 0 7.4632C0 12.9691 6.91977 19.5131 7.21438 19.7893C7.29492 19.8642 7.39746 19.9019 7.5 19.9019C7.60254 19.9019 7.70508 19.8642 7.78566 19.7893C8.08023 19.5131 15 12.9691 15 7.4632C15 3.34814 11.6357 0 7.5 0ZM7.5 11.6094C5.20262 11.6094 3.33332 9.7493 3.33332 7.4632C3.33332 5.17709 5.20266 3.31696 7.5 3.31696C9.79734 3.31696 11.6667 5.17713 11.6667 7.4632C11.6667 9.74927 9.79738 11.6094 7.5 11.6094Z" fill="#969C9F"/>
</svg>
