<svg width="15" height="20" viewBox="0 0 15 20" fill="none" xmlns="http://www.w3.org/2000/svg">
<path d="M7.5 0C3.36426 0 0 3.36465 0 7.5C0 13.033 6.91977 19.6094 7.21438 19.8869C7.29492 19.9621 7.39746 20 7.5 20C7.60254 20 7.70508 19.9621 7.78566 19.8869C8.08023 19.6094 15 13.033 15 7.5C15 3.36465 11.6357 0 7.5 0ZM7.5 11.6667C5.20262 11.6667 3.33332 9.79738 3.33332 7.5C3.33332 5.20262 5.20266 3.33332 7.5 3.33332C9.79734 3.33332 11.6667 5.20266 11.6667 7.5C11.6667 9.79734 9.79738 11.6667 7.5 11.6667Z" fill="#969C9F"/>
</svg>
