<svg width="73" height="107" viewBox="0 0 73 107" fill="none" xmlns="http://www.w3.org/2000/svg">
<g clip-path="url(#clip0)">
<path d="M36.5 0C21.4073 0 9.125 12.3674 9.125 27.5727C9.125 49.1777 33.9268 71.4853 34.9822 72.4221C35.4172 72.8084 35.9586 73 36.5 73C37.0414 73 37.5828 72.8084 38.0178 72.4251C39.0732 71.4853 63.875 49.1777 63.875 27.5727C63.875 12.3674 51.5928 0 36.5 0ZM36.5 42.5833C28.1141 42.5833 21.2917 35.7609 21.2917 27.375C21.2917 18.9891 28.1141 12.1667 36.5 12.1667C44.8859 12.1667 51.7083 18.9891 51.7083 27.375C51.7083 35.7609 44.8859 42.5833 36.5 42.5833Z" fill="#9BC427"/>
</g>
<path d="M22.2612 90.84H19.3412V97H17.3812V83H19.3412V89.08H22.3012L26.7012 83H28.8412L23.8412 89.78L29.0812 97H26.8012L22.2612 90.84ZM31.1312 83H41.6912V84.7H33.1112V88.7H37.4712C39.1378 88.7 40.4045 89.0467 41.2712 89.74C42.1378 90.4333 42.5712 91.4333 42.5712 92.74C42.5712 94.1133 42.0978 95.1667 41.1512 95.9C40.2178 96.6333 38.8778 97 37.1312 97H31.1312V83ZM37.0512 95.42C38.1978 95.42 39.0712 95.2 39.6712 94.76C40.2712 94.32 40.5712 93.6733 40.5712 92.82C40.5712 91.1267 39.3978 90.28 37.0512 90.28H33.1112V95.42H37.0512ZM50.6401 90.84H47.7201V97H45.7601V83H47.7201V89.08H50.6801L55.0801 83H57.2201L52.2201 89.78L57.4601 97H55.1801L50.6401 90.84Z" fill="#181818"/>
<defs>
<clipPath id="clip0">
<rect width="73" height="73" fill="white"/>
</clipPath>
</defs>
</svg>
