<svg width="23" height="23" viewBox="0 0 23 23" fill="none" xmlns="http://www.w3.org/2000/svg">
<path d="M16.3377 0H6.66007C5.73455 0 4.98688 0.750576 4.98688 1.67609V21.3261C4.98688 22.2487 5.73455 23 6.66007 23H16.3377C17.2618 23 18.0123 22.2494 18.0123 21.3261V1.67609C18.0116 0.750576 17.2618 0 16.3377 0ZM16.7573 18.6352H6.24195V2.82736H16.7573V18.6352ZM13.7426 1.70077H9.25587V1.21152H13.7434L13.7426 1.70077ZM15.6626 1.4772C15.6626 1.71384 15.4695 1.90548 15.2336 1.90548C14.997 1.90548 14.8046 1.71311 14.8046 1.4772C14.8046 1.24128 14.997 1.04892 15.2336 1.04892C15.4703 1.04819 15.6626 1.24056 15.6626 1.4772ZM13.5416 21.2143H9.45549V19.957H13.5416V21.2143Z" fill="white"/>
</svg>
