<svg width="23" height="23" viewBox="0 0 23 23" fill="none" xmlns="http://www.w3.org/2000/svg">
<path d="M16.3381 0H6.66049C5.73498 0 4.9873 0.750576 4.9873 1.67609V21.3261C4.9873 22.2487 5.73498 23 6.66049 23H16.3381C17.2622 23 18.0128 22.2494 18.0128 21.3261V1.67609C18.012 0.750576 17.2622 0 16.3381 0ZM16.7577 18.6352H6.24238V2.82736H16.7577V18.6352ZM13.7431 1.70077H9.2563V1.21152H13.7438L13.7431 1.70077ZM15.663 1.4772C15.663 1.71384 15.47 1.90548 15.234 1.90548C14.9974 1.90548 14.805 1.71311 14.805 1.4772C14.805 1.24128 14.9974 1.04892 15.234 1.04892C15.4707 1.04819 15.663 1.24056 15.663 1.4772ZM13.542 21.2143H9.45592V19.957H13.542V21.2143Z" fill="#181818"/>
</svg>
