<svg width="30" height="30" viewBox="0 0 30 30" fill="none" xmlns="http://www.w3.org/2000/svg">
<path d="M29.7339 28.4701L22.4435 21.1796C24.3991 18.9313 25.5831 15.9978 25.5831 12.7916C25.5831 5.73393 19.8426 0 12.7916 0C5.73392 0 0 5.74058 0 12.7916C0 19.8426 5.74058 25.5832 12.7916 25.5832C15.9978 25.5832 18.9313 24.3991 21.1796 22.4435L28.4701 29.7339C28.643 29.9069 28.8758 30 29.102 30C29.3282 30 29.561 29.9135 29.7339 29.7339C30.0798 29.388 30.0798 28.816 29.7339 28.4701ZM1.78936 12.7916C1.78936 6.72506 6.72505 1.79601 12.7849 1.79601C18.8514 1.79601 23.7805 6.73171 23.7805 12.7916C23.7805 18.8514 18.8514 23.7938 12.7849 23.7938C6.72505 23.7938 1.78936 18.8581 1.78936 12.7916Z" fill="#9BC427"/>
<path d="M7 13.7188H12.2812V19V19.25H12.5312H13.4688H13.7188V19V13.7188H19H19.25V13.4688V12.5312V12.2812H19H13.7188V7V6.75H13.4688H12.5312H12.2812V7V12.2812H7H6.75V12.5312V13.4688V13.7188H7Z" fill="#9BC427" stroke="#9BC427" stroke-width="0.5"/>
</svg>
