<svg width="37" height="37" viewBox="0 0 37 37" fill="none" xmlns="http://www.w3.org/2000/svg">
<path d="M35.4208 16.345H28.7178C28.5852 16.345 28.458 16.2923 28.3642 16.1985C28.2705 16.1048 28.2178 15.9776 28.2178 15.845C28.2178 15.7124 28.2705 15.5852 28.3642 15.4914C28.458 15.3977 28.5852 15.345 28.7178 15.345H34.9208V8.97949H31.1923C31.0597 8.97949 30.9325 8.92681 30.8387 8.83305C30.745 8.73928 30.6923 8.6121 30.6923 8.47949C30.6923 8.34688 30.745 8.21971 30.8387 8.12594C30.9325 8.03217 31.0597 7.97949 31.1923 7.97949H35.4213C35.5539 7.97949 35.6811 8.03217 35.7748 8.12594C35.8686 8.21971 35.9213 8.34688 35.9213 8.47949V15.845C35.9213 15.9107 35.9083 15.9758 35.8832 16.0365C35.858 16.0971 35.8211 16.1523 35.7746 16.1987C35.7282 16.2452 35.673 16.282 35.6123 16.3071C35.5515 16.3322 35.4865 16.3451 35.4208 16.345Z" fill="#9BC427" stroke="#9BC427" stroke-width="0.4"/>
<path d="M8.2821 16.345H1.5791C1.44649 16.345 1.31932 16.2923 1.22555 16.1985C1.13178 16.1048 1.0791 15.9776 1.0791 15.845V8.47949C1.0791 8.34688 1.13178 8.21971 1.22555 8.12594C1.31932 8.03217 1.44649 7.97949 1.5791 7.97949H5.8081C5.94071 7.97949 6.06789 8.03217 6.16165 8.12594C6.25542 8.21971 6.3081 8.34688 6.3081 8.47949C6.3081 8.6121 6.25542 8.73928 6.16165 8.83305C6.06789 8.92681 5.94071 8.97949 5.8081 8.97949H2.0791V15.345H8.2821C8.41471 15.345 8.54189 15.3977 8.63566 15.4914C8.72942 15.5852 8.7821 15.7124 8.7821 15.845C8.7821 15.9776 8.72942 16.1048 8.63566 16.1985C8.54189 16.2923 8.41471 16.345 8.2821 16.345Z" fill="#9BC427" stroke="#9BC427" stroke-width="0.4"/>
<path d="M21.7777 16.345H15.2227C15.09 16.345 14.9629 16.2923 14.8691 16.1986C14.7753 16.1048 14.7227 15.9776 14.7227 15.845C14.7227 15.7124 14.7753 15.5852 14.8691 15.4914C14.9629 15.3977 15.09 15.345 15.2227 15.345H21.7777C21.9103 15.345 22.0374 15.3977 22.1312 15.4914C22.225 15.5852 22.2777 15.7124 22.2777 15.845C22.2777 15.9776 22.225 16.1048 22.1312 16.1986C22.0374 16.2923 21.9103 16.345 21.7777 16.345Z" fill="#9BC427" stroke="#9BC427" stroke-width="0.4"/>
<path d="M21.7777 16.345H15.2227C15.09 16.345 14.9629 16.2923 14.8691 16.1986C14.7753 16.1048 14.7227 15.9776 14.7227 15.845C14.7227 15.7124 14.7753 15.5852 14.8691 15.4914C14.9629 15.3977 15.09 15.345 15.2227 15.345H21.7777C21.9103 15.345 22.0374 15.3977 22.1312 15.4914C22.225 15.5852 22.2777 15.7124 22.2777 15.845C22.2777 15.9776 22.225 16.1048 22.1312 16.1986C22.0374 16.2923 21.9103 16.345 21.7777 16.345Z" fill="#9BC427" stroke="#9BC427" stroke-width="0.4"/>
<path d="M33.0051 36H3.99512C3.86251 36 3.73533 35.9473 3.64156 35.8536C3.5478 35.7598 3.49512 35.6326 3.49512 35.5V15.845C3.49512 15.7124 3.5478 15.5852 3.64156 15.4914C3.73533 15.3977 3.86251 15.345 3.99512 15.345H8.28162C8.41423 15.345 8.5414 15.3977 8.63517 15.4914C8.72894 15.5852 8.78162 15.7124 8.78162 15.845C8.78162 15.9776 8.72894 16.1048 8.63517 16.1986C8.5414 16.2923 8.41423 16.345 8.28162 16.345H4.49512V35H32.5051V16.345H28.7186C28.586 16.345 28.4588 16.2923 28.3651 16.1986C28.2713 16.1048 28.2186 15.9776 28.2186 15.845C28.2186 15.7124 28.2713 15.5852 28.3651 15.4914C28.4588 15.3977 28.586 15.345 28.7186 15.345H33.0051C33.1377 15.345 33.2649 15.3977 33.3587 15.4914C33.4524 15.5852 33.5051 15.7124 33.5051 15.845V35.5C33.5051 35.6326 33.4524 35.7598 33.3587 35.8536C33.2649 35.9473 33.1377 36 33.0051 36Z" fill="#9BC427" stroke="#9BC427" stroke-width="0.4"/>
<path d="M21.2931 36H15.7061C15.5734 36 15.4463 35.9473 15.3525 35.8536C15.2587 35.7598 15.2061 35.6326 15.2061 35.5V15.843C15.2061 15.7104 15.2587 15.5832 15.3525 15.4895C15.4463 15.3957 15.5734 15.343 15.7061 15.343H21.2931C21.4257 15.343 21.5528 15.3957 21.6466 15.4895C21.7404 15.5832 21.7931 15.7104 21.7931 15.843V35.5C21.7931 35.6326 21.7404 35.7598 21.6466 35.8536C21.5528 35.9473 21.4257 36 21.2931 36ZM16.2061 35H20.7931V16.343H16.2061V35Z" fill="#9BC427" stroke="#9BC427" stroke-width="0.4"/>
<path d="M20.2334 12.6645H16.7834C16.2898 12.664 15.8167 12.4677 15.4677 12.1187C15.1187 11.7697 14.9224 11.2965 14.9219 10.803V6.20299C14.9224 5.70945 15.1187 5.23628 15.4677 4.8873C15.8167 4.53831 16.2898 4.34202 16.7834 4.34149H20.2334C20.7269 4.34202 21.2001 4.53831 21.5491 4.8873C21.8981 5.23628 22.0943 5.70945 22.0949 6.20299V10.803C22.0943 11.2965 21.8981 11.7697 21.5491 12.1187C21.2001 12.4677 20.7269 12.664 20.2334 12.6645ZM16.7834 5.34349C16.555 5.34376 16.336 5.43461 16.1745 5.59611C16.013 5.75762 15.9221 5.97659 15.9219 6.20499V10.805C15.9221 11.0334 16.013 11.2524 16.1745 11.4139C16.336 11.5754 16.555 11.6662 16.7834 11.6665H20.2334C20.4618 11.6662 20.6808 11.5754 20.8423 11.4139C21.0038 11.2524 21.0946 11.0334 21.0949 10.805V6.20499C21.0946 5.97659 21.0038 5.75762 20.8423 5.59611C20.6808 5.43461 20.4618 5.34376 20.2334 5.34349H16.7834Z" fill="#9BC427" stroke="#9BC427" stroke-width="0.4"/>
<path d="M21.4619 11.884C21.3417 11.8842 21.2253 11.841 21.1343 11.7624C21.0433 11.6838 20.9837 11.575 20.9663 11.456C20.949 11.337 20.9752 11.2157 21.04 11.1144C21.1049 11.0131 21.2041 10.9386 21.3194 10.9045L30.9754 8.02349C31.1875 7.95993 31.3841 7.85305 31.5527 7.70961C31.7213 7.56617 31.8584 7.3893 31.9551 7.19018C32.0519 6.99106 32.1063 6.77403 32.1149 6.55281C32.1234 6.33159 32.086 6.111 32.0049 5.90499L30.8609 3.01149C30.7791 2.80506 30.6552 2.61794 30.497 2.46202C30.3389 2.3061 30.1501 2.1848 29.9426 2.10583C29.735 2.02687 29.5133 1.99197 29.2915 2.00336C29.0698 2.01475 28.8528 2.07218 28.6544 2.17199L21.5004 5.78349C21.4416 5.81545 21.377 5.83528 21.3103 5.84179C21.2437 5.84829 21.1764 5.84135 21.1125 5.82137C21.0486 5.80139 20.9894 5.76878 20.9383 5.72547C20.8872 5.68217 20.8454 5.62904 20.8153 5.56926C20.7851 5.50947 20.7673 5.44425 20.7628 5.37744C20.7584 5.31063 20.7674 5.24361 20.7893 5.18036C20.8112 5.1171 20.8457 5.05889 20.8905 5.00918C20.9354 4.95947 20.9898 4.91928 21.0504 4.89099L28.2004 1.27949C28.5229 1.11706 28.8756 1.02357 29.2361 1.00495C29.5967 0.986341 29.9571 1.04302 30.2946 1.17138C30.632 1.29974 30.939 1.49697 31.1961 1.75051C31.4531 2.00405 31.6545 2.30833 31.7874 2.64399L32.9314 5.53749C33.0635 5.8724 33.1245 6.23108 33.1107 6.59081C33.0969 6.95055 33.0085 7.3035 32.8512 7.6273C32.6939 7.95111 32.4711 8.23871 32.1968 8.47191C31.9225 8.7051 31.6028 8.87879 31.2579 8.98199L21.6049 11.863C21.5585 11.8769 21.5104 11.884 21.4619 11.884Z" fill="#9BC427" stroke="#9BC427" stroke-width="0.4"/>
<path d="M21.5953 9.5125C21.4897 9.51263 21.3867 9.47929 21.3012 9.41727C21.2157 9.35526 21.152 9.26775 21.1193 9.1673C21.0866 9.06685 21.0865 8.95862 21.1191 8.85814C21.1518 8.75766 21.2154 8.67009 21.3008 8.608C21.4798 8.4775 25.7278 5.415 28.7753 5.7855C28.9046 5.80419 29.0214 5.87271 29.1008 5.9764C29.1801 6.08009 29.2158 6.21072 29.2001 6.34036C29.1845 6.47001 29.1187 6.58838 29.0169 6.67016C28.9151 6.75194 28.7853 6.79065 28.6553 6.778C25.9878 6.452 21.9298 9.3865 21.8893 9.4165C21.8039 9.47877 21.701 9.51237 21.5953 9.5125Z" fill="#9BC427" stroke="#9BC427" stroke-width="0.4"/>
<path d="M25.306 26.4375C25.2674 26.4376 25.229 26.4333 25.1915 26.4245C25.0899 26.4007 24.9983 26.3457 24.9296 26.2673C24.8608 26.1888 24.8183 26.0908 24.808 25.987C24.8015 25.923 24.108 19.481 19.0445 12.456C19.0061 12.4027 18.9786 12.3424 18.9635 12.2785C18.9485 12.2146 18.9461 12.1483 18.9567 12.0835C18.9672 12.0187 18.9904 11.9566 19.025 11.9007C19.0595 11.8449 19.1047 11.7964 19.158 11.758C19.2113 11.7196 19.2716 11.6921 19.3355 11.6771C19.3994 11.662 19.4657 11.6597 19.5305 11.6702C19.5953 11.6807 19.6574 11.7039 19.7133 11.7385C19.7691 11.773 19.8176 11.8182 19.856 11.8715C22.6339 15.6493 24.5866 19.9689 25.5875 24.55L27.246 21.911C27.2826 21.8528 27.3308 21.8028 27.3876 21.7641C27.4443 21.7254 27.5085 21.6988 27.576 21.686C27.6435 21.6732 27.713 21.6745 27.78 21.6897C27.847 21.7049 27.9101 21.7338 27.9655 21.7745L30.65 23.75C29.421 16.6465 25.305 10.4705 25.2615 10.4055C25.2246 10.351 25.1988 10.2898 25.1856 10.2254C25.1724 10.161 25.1721 10.0946 25.1846 10.03C25.1971 9.96541 25.2223 9.90394 25.2586 9.84909C25.2949 9.79425 25.3417 9.74711 25.3962 9.71037C25.4508 9.67363 25.5121 9.64802 25.5765 9.63501C25.641 9.62199 25.7074 9.62183 25.772 9.63452C25.8365 9.64721 25.8979 9.67252 25.9526 9.70898C26.0074 9.74544 26.0544 9.79235 26.091 9.84701C26.2845 10.135 30.848 16.984 31.8185 24.802C31.8305 24.8989 31.8138 24.9972 31.7706 25.0847C31.7274 25.1723 31.6594 25.2453 31.5752 25.2947C31.491 25.3441 31.3942 25.3677 31.2966 25.3627C31.1991 25.3577 31.1052 25.3243 31.0265 25.2665L27.8065 22.9L25.729 26.205C25.6838 26.2763 25.6214 26.335 25.5474 26.3757C25.4734 26.4163 25.3904 26.4376 25.306 26.4375Z" fill="#9BC427" stroke="#9BC427" stroke-width="0.4"/>
<path d="M15.5496 11.884C15.5012 11.884 15.453 11.8769 15.4066 11.863L5.73911 8.982C5.39411 8.87887 5.0743 8.7052 4.79993 8.47199C4.52557 8.23879 4.30263 7.95114 4.14526 7.62727C3.98788 7.3034 3.8995 6.95037 3.8857 6.59055C3.8719 6.23073 3.93299 5.87197 4.06511 5.537L5.20911 2.6435C5.34206 2.30784 5.54347 2.00356 5.80049 1.75002C6.05751 1.49649 6.36452 1.29926 6.70195 1.17089C7.03939 1.04253 7.39987 0.985852 7.76041 1.00446C8.12096 1.02308 8.47368 1.11657 8.79611 1.279L15.9496 4.891C16.0103 4.91929 16.0647 4.95948 16.1095 5.00919C16.1544 5.0589 16.1888 5.11711 16.2107 5.18037C16.2327 5.24363 16.2417 5.31065 16.2372 5.37745C16.2328 5.44426 16.2149 5.50949 16.1848 5.56927C16.1546 5.62906 16.1128 5.68218 16.0617 5.72548C16.0107 5.76879 15.9514 5.8014 15.8875 5.82138C15.8236 5.84136 15.7564 5.84831 15.6897 5.8418C15.6231 5.83529 15.5584 5.81546 15.4996 5.7835L8.34961 2.172C8.15124 2.07219 7.93428 2.01476 7.71251 2.00337C7.49074 1.99198 7.26903 2.02688 7.06149 2.10584C6.85394 2.18481 6.66511 2.30611 6.50699 2.46203C6.34888 2.61795 6.22496 2.80508 6.14311 3.0115L4.99561 5.905C4.91446 6.11104 4.87697 6.33168 4.8855 6.55295C4.89403 6.77423 4.9484 6.99133 5.04517 7.19051C5.14194 7.38969 5.279 7.56661 5.44768 7.71008C5.61636 7.85355 5.81298 7.96045 6.02511 8.024L15.6931 10.9045C15.8085 10.9386 15.9076 11.0131 15.9725 11.1144C16.0373 11.2157 16.0635 11.337 16.0462 11.456C16.0289 11.575 15.9692 11.6838 15.8782 11.7624C15.7872 11.841 15.6709 11.8842 15.5506 11.884H15.5496Z" fill="#9BC427" stroke="#9BC427" stroke-width="0.4"/>
<path d="M15.4055 9.5125C15.3 9.51266 15.1972 9.47921 15.112 9.417C15.0795 9.3935 11.8225 7.0455 9.21647 6.7785C9.14966 6.77388 9.08445 6.75588 9.02473 6.72558C8.96501 6.69527 8.91198 6.65328 8.8688 6.60209C8.82562 6.5509 8.79316 6.49156 8.77335 6.42758C8.75354 6.36361 8.74678 6.29631 8.75349 6.22967C8.76019 6.16303 8.7802 6.09842 8.81235 6.03967C8.8445 5.98092 8.88813 5.92923 8.94064 5.88766C8.99315 5.84609 9.05347 5.8155 9.11803 5.79769C9.18259 5.77988 9.25007 5.77523 9.31647 5.784C12.1925 6.0785 15.556 8.505 15.698 8.6085C15.7834 8.6706 15.847 8.75817 15.8796 8.85865C15.9123 8.95913 15.9122 9.06735 15.8795 9.1678C15.8468 9.26825 15.7831 9.35576 15.6976 9.41778C15.6121 9.47979 15.5091 9.51313 15.4035 9.513L15.4055 9.5125Z" fill="#9BC427" stroke="#9BC427" stroke-width="0.4"/>
<path d="M11.6935 26.4375C11.609 26.4375 11.5259 26.4161 11.4519 26.3752C11.378 26.3344 11.3156 26.2755 11.2705 26.204L9.19302 22.9L5.97352 25.2675C5.89479 25.3253 5.80088 25.3587 5.70337 25.3637C5.60585 25.3687 5.50901 25.3451 5.42478 25.2957C5.34056 25.2463 5.27264 25.1733 5.22941 25.0857C5.18618 24.9982 5.16953 24.8999 5.18152 24.803C6.14952 16.984 10.715 10.135 10.9085 9.847C10.9827 9.7374 11.0974 9.66171 11.2274 9.63652C11.3573 9.61133 11.492 9.6387 11.6018 9.71263C11.7116 9.78656 11.7876 9.90101 11.8131 10.0309C11.8386 10.1608 11.8116 10.2955 11.738 10.4055C11.6945 10.4705 7.57802 16.653 6.34852 23.7495L9.03402 21.775C9.08937 21.7343 9.15253 21.7054 9.21954 21.6902C9.28655 21.6749 9.35598 21.6737 9.4235 21.6865C9.49102 21.6993 9.55517 21.7259 9.61195 21.7646C9.66873 21.8033 9.71692 21.8533 9.75352 21.9115L11.412 24.55C12.4129 19.969 14.3657 15.6496 17.1435 11.872C17.1819 11.8187 17.2304 11.7735 17.2862 11.739C17.3421 11.7044 17.4042 11.6812 17.469 11.6707C17.5338 11.6601 17.6001 11.6625 17.664 11.6775C17.7279 11.6926 17.7882 11.7201 17.8415 11.7585C17.8948 11.7969 17.94 11.8454 17.9745 11.9012C18.0091 11.9571 18.0323 12.0192 18.0428 12.084C18.0534 12.1488 18.051 12.2151 18.036 12.279C18.0209 12.3429 17.9934 12.4032 17.955 12.4565C12.8925 19.481 12.1995 25.923 12.1915 25.9875C12.1812 26.0913 12.1387 26.1893 12.0699 26.2678C12.0012 26.3462 11.9096 26.4012 11.808 26.425C11.7705 26.4336 11.732 26.4378 11.6935 26.4375Z" fill="#9BC427" stroke="#9BC427" stroke-width="0.4"/>
</svg>
