<svg width="30" height="30" viewBox="0 0 30 30" fill="none" xmlns="http://www.w3.org/2000/svg">
<path d="M17.8577 0H12.1434C6.15832 0 1.28906 4.86844 1.28906 10.8521V15.9995C1.28906 20.4557 4.02732 24.4604 8.14482 26.0918V29.4287C8.14482 29.6546 8.27789 29.8594 8.48461 29.9509C8.55879 29.9838 8.63777 30 8.71617 30C8.8551 30 8.99262 29.9492 9.09973 29.8522L12.4124 26.8516H17.8577C23.8428 26.8516 28.7121 21.9832 28.7121 15.9995V10.8521C28.712 4.86844 23.8427 0 17.8577 0Z" fill="white"/>
<path d="M27.5694 15.9995C27.5694 21.3533 23.2128 25.709 17.8576 25.709H12.1919C12.0502 25.709 11.9135 25.7615 11.8083 25.8568L9.28734 28.1404V25.6956C9.28734 25.4535 9.13477 25.2376 8.90631 25.1572C5.03379 23.7881 2.43164 20.108 2.43164 15.9995V10.8522C2.43164 5.49832 6.7882 1.14264 12.1434 1.14264H17.8576C23.2128 1.14264 27.5694 5.49832 27.5694 10.8522V15.9995Z" fill="white"/>
<path d="M22.5511 17.4211L19.0395 15.1403C18.6554 14.891 18.1987 14.8062 17.751 14.8988C17.303 14.993 16.9183 15.2575 16.6683 15.643L16.5032 15.8968C14.9834 15.3947 13.3078 14.7531 12.3046 11.8491L12.7199 11.4881H12.7202C13.433 10.8683 13.508 9.7837 12.8879 9.06956L10.1409 5.90948C9.93392 5.67124 9.57298 5.64669 9.33474 5.85311L7.61021 7.35223C6.09714 8.66725 6.80431 10.6127 7.0367 11.2521C7.04701 11.2806 7.05961 11.3079 7.07437 11.3347C7.13437 11.4424 8.56681 13.9982 10.8797 16.3543C13.202 18.7199 17.3951 20.9047 17.5237 20.9683C18.0026 21.2791 18.5413 21.428 19.0741 21.428C20.0098 21.428 20.9276 20.9694 21.4746 20.1281L22.7191 18.2116C22.8909 17.9467 22.8156 17.593 22.5511 17.4211Z" fill="#7B40A3"/>
<path d="M20.5151 19.5055C20.0001 20.2984 18.9368 20.5237 18.0966 19.982C18.0547 19.9603 13.8895 17.7911 11.6938 15.5544C9.64183 13.4639 8.27935 11.1418 8.09331 10.8176C7.64056 9.54886 7.7206 8.76892 8.35833 8.21486L9.65214 7.09062L12.0241 9.81945C12.2347 10.0616 12.2105 10.4159 11.9692 10.6256L11.2682 11.2349C11.0974 11.3833 11.0302 11.6182 11.0969 11.8341C12.2922 15.7178 14.6163 16.4804 16.3132 17.0378L16.5603 17.1192C16.8075 17.2029 17.0787 17.1075 17.2201 16.8888L17.6254 16.2651C17.7091 16.1362 17.8369 16.0486 17.9853 16.0173C18.1342 15.9855 18.2866 16.0151 18.4157 16.0988L21.4483 18.0682L20.5151 19.5055Z" fill="#7B40A3"/>
<path d="M16.3041 9.28214C16.0001 9.19454 15.6843 9.37137 15.5981 9.67548C15.5119 9.97899 15.6879 10.2948 15.9911 10.3812C16.8425 10.6233 17.5203 11.3029 17.7606 12.1549C17.8314 12.4065 18.0608 12.5711 18.3101 12.5711C18.3615 12.5711 18.4136 12.5644 18.4655 12.5499C18.769 12.464 18.9459 12.1487 18.8603 11.8446C18.5135 10.6139 17.5338 9.63194 16.3041 9.28214Z" fill="#7B40A3"/>
<path d="M20.6514 12.6938C20.7027 12.6938 20.7549 12.6871 20.8068 12.6726C21.1106 12.5867 21.2871 12.2709 21.2015 11.9674C20.5275 9.57779 18.6253 7.67138 16.2374 6.99181C15.9339 6.90421 15.6178 7.08222 15.5317 7.38515C15.4455 7.68867 15.6215 8.00443 15.925 8.09091C17.9341 8.6622 19.5347 10.2668 20.1019 12.2776C20.173 12.5293 20.402 12.6938 20.6514 12.6938Z" fill="#7B40A3"/>
<path d="M15.9916 4.33173C15.6876 4.24413 15.3718 4.42096 15.2856 4.72507C15.1994 5.02858 15.3754 5.34434 15.6786 5.43083C19.0833 6.39938 21.7951 9.11755 22.7559 12.5242C22.8267 12.7758 23.056 12.9404 23.3054 12.9404C23.3567 12.9404 23.4089 12.9338 23.4608 12.9192C23.7643 12.8333 23.9411 12.5175 23.8555 12.214C22.788 8.42854 19.7746 5.4085 15.9916 4.33173Z" fill="#7B40A3"/>
</svg>
